<svg xmlns="http://www.w3.org/2000/svg" width="256" height="80" viewBox="0 0 256 80">
  <path fill="#95BF47" d="M76.69,24.52c-0.04-0.36-0.36-0.56-0.56-0.6c-0.24-0.04-4.64-0.32-4.64-0.32s-3.36-3.32-3.76-3.68c-0.36-0.36-1.12-0.24-1.4-0.16c-0.04,0.04-0.72,0.24-1.84,0.56c-0.08-0.32-0.28-0.72-0.52-1.12c-0.76-1.32-2.04-2.44-3.84-2.44h-0.16c-0.56-0.76-1.24-1.48-2.16-1.48h-0.12c-1.68,0-3.32,2.08-3.76,5.72c-1.04,0.32-2.04,0.64-3,0.92c-0.96,0.32-1,0.4-1.12,1.36c-0.12,0.72-3,23.24-3,23.24L76.77,53.4L76.69,24.52z M69.69,26.92c-0.88,0.28-1.88,0.6-2.92,0.92v-0.68c0-1.4-0.2-2.52-0.52-3.44c1.8-0.56,2.76-0.88,2.76-0.88C69.01,22.84,69.37,25.24,69.69,26.92z M65.49,23.04c-0.36-0.8-0.8-1.64-1.44-2.24c-0.88-0.8-2-1.08-2.88-1.08c0.56-2.2,1.68-3.28,2.44-3.28h0.08c0.16,0,0.52,0.08,0.72,0.64C64.61,17.6,64.89,19.84,65.49,23.04z M63.61,27.52v-0.4c1.16-0.36,2.28-0.68,3.28-1c-0.4-2.44-1.08-5.72-2-7.56c-1.36,0.44-2.28,1.64-2.72,3.28c-0.52,1.88-0.52,4.6-0.52,6.36v1.12c-0.48,0.16-0.96,0.28-1.44,0.44c0.12-4.28,0.76-10.28,2.88-10.28h0.08c0.76,0,1.28,0.4,1.68,0.92c1.32,1.68,1.52,4.92,1.52,6.56c0,0.28,0,0.44-0.04,0.6c-0.48,0.16-1,0.32-1.52,0.44c-0.04,0-0.08,0-0.12,0v-0.36L63.61,27.52L63.61,27.52z M61.57,28.2c0.04-0.16,0.08-0.36,0.08-0.52v-0.8c-1.24,0.16-2.44,0.2-3.28,0.2c0.32-3.24,1.12-4.84,1.96-5.88c-0.36-0.96-0.88-1.96-1.52-2.88c-0.52-0.76-1.32-1.28-2.2-1.36c-0.2,0-0.36,0-0.56,0h-0.16c-1.32,0-2.32,0.96-2.96,2.12c-0.96,1.76-1,4.28-0.28,7.6c0.36,1.56,1.16,3.56,2.56,5.44c2.8,3.68,6.84,6.24,9.48,7.76c-0.16-1.6-0.32-3.24-0.44-4.64c-0.32-3.32-0.56-5.88-0.88-7.96c-0.6,0.04-1.16,0.08-1.72,0.08h-0.6c0.04,1.08,0.08,2.32,0.16,3.64c0.12,2.04,0.28,4.32,0.44,6.44c-2.16-1.56-4.52-3.44-6.16-5.52c-1.24-1.6-1.96-3.28-2.24-4.64c-0.64-2.88-0.56-4.88,0.2-6.24c0.44-0.76,1.04-1.16,1.8-1.16h0.08c0.48,0,0.96,0.24,1.24,0.72c0.48,0.68,0.84,1.52,1.12,2.24c-0.76,1.08-1.48,2.76-1.8,6.08c0.84,0,1.84-0.04,2.84-0.16c0.04-1.64,0.12-2.88,0.16-3.04c0.04-0.12,0.08-0.16,0.2-0.16h0.08c0.12,0,0.16,0.04,0.2,0.16c0.04,0.16,0.12,1.4,0.16,3.04c0.24-0.04,0.48-0.04,0.72-0.08c0.36-0.04,0.68-0.08,1-0.16c0-0.24,0-0.48,0-0.68c0-1.56,0.04-4.28,0.4-5.96c0.28-1.4,0.72-2.32,1.32-2.92c0.28-0.28,0.6-0.44,0.96-0.44h0.08c0.36,0,0.72,0.2,0.96,0.56C62.05,21.96,61.93,24.96,61.57,28.2z"/>
  <path fill="#5E8E3E" d="M76.69,24.52c-0.04-0.36-0.36-0.56-0.56-0.6c-0.24-0.04-4.64-0.32-4.64-0.32s-3.36-3.32-3.76-3.68c-0.12-0.12-0.28-0.2-0.48-0.2c0,0,0,0-0.04,0L76.77,53.4L76.69,24.52z"/>
  <path fill="#FFFFFF" d="M65.13,29.88L63.89,34c-1.24,0.36-2.56,0.76-3.88,1.16l2.12,11.36c0,0.04,0.04,0.04,0.04,0.04c0.72-0.2,1.44-0.44,2.12-0.64c1.32-0.4,2.52-0.8,3.56-1.08c-0.16-1.08-0.36-2.48-0.56-3.88c-0.24-1.68-0.48-3.28-0.6-4.28c-0.2-1.52-0.44-3.12-0.64-4.68c-0.08-0.56-0.16-1.16-0.24-1.76C65.57,30.04,65.37,29.96,65.13,29.88z"/>
  <path fill="#FFFFFF" d="M94.81,42.2c0-0.28,0.08-0.52,0.08-0.8c0-2.76-1.48-5.32-5.36-5.32c-3.96,0-6.08,3.52-6.08,7.08c0,2.36,1.52,5.32,5.28,5.32c0.6,0,1.2-0.04,1.8-0.16c0.52-0.12,1.08-0.32,1.6-0.56c0.04-0.04,0.12-0.08,0.2-0.12l1.16-2.96c-0.04,0-0.04,0.04-0.08,0.04c-1,0.48-2.16,0.84-3.32,0.84c-1.36,0-2.12-0.72-2.12-2.04c0-0.16,0-0.32,0.04-0.52c0.04-0.24,0.08-0.48,0.12-0.72H94.81z M90.65,39.08c-0.04,0.04-0.08,0.04-0.12,0.04c-0.24,0-0.36-0.16-0.36-0.4c0-0.44,0.24-1.12,0.84-1.12c0.36,0,0.52,0.2,0.52,0.52C91.53,38.52,91.25,38.84,90.65,39.08z"/>
  <path fill="#FFFFFF" d="M102.21,42.16c0-3.56-1.56-6.08-4.56-6.08c-3.56,0-5.52,3.12-5.52,6.8c0,2.32,1.24,5.56,4.76,5.56c1.88,0,3.32-0.52,4.24-1l-0.68-2.28c-0.72,0.32-1.6,0.56-2.56,0.56c-1.12,0-1.72-0.56-1.72-1.64c0-0.16,0-0.28,0.04-0.48h5.92C102.17,42.88,102.21,42.48,102.21,42.16z M96.21,41.52c0.04-0.24,0.04-0.48,0.08-0.68c0.16-0.88,0.64-1.52,1.28-1.52c0.68,0,0.96,0.72,0.96,1.4c0,0.28-0.04,0.56-0.08,0.8H96.21z"/>
  <path fill="#FFFFFF" d="M108.89,42.16c0-3.56-1.56-6.08-4.56-6.08c-3.56,0-5.52,3.12-5.52,6.8c0,2.32,1.24,5.56,4.76,5.56c1.88,0,3.32-0.52,4.24-1l-0.68-2.28c-0.72,0.32-1.6,0.56-2.56,0.56c-1.12,0-1.72-0.56-1.72-1.64c0-0.16,0-0.28,0.04-0.48h5.92C108.85,42.88,108.89,42.48,108.89,42.16z M102.89,41.52c0.04-0.24,0.04-0.48,0.08-0.68c0.16-0.88,0.64-1.52,1.28-1.52c0.68,0,0.96,0.72,0.96,1.4c0,0.28-0.04,0.56-0.08,0.8H102.89z"/>
  <path fill="#FFFFFF" d="M115.21,40.8V40.76c0.84-0.48,1.32-1.32,1.32-2.28c0-1.2-0.88-2.4-2.84-2.4c-1.08,0-2.32,0.32-3.12,0.76l0.76,2.36c0.44-0.2,1.04-0.4,1.52-0.4c0.44,0,0.64,0.2,0.64,0.48c0,0.4-0.36,0.6-0.96,0.6h-0.8l0.44,2.36h0.84c0.68,0,1.16,0.24,1.16,0.84c0,0.48-0.4,0.84-1.08,0.84c-0.56,0-1.24-0.24-1.72-0.48l-0.68,2.36c0.6,0.28,1.68,0.64,2.64,0.64c2.36,0,3.68-1.32,3.68-3.16C117.01,42.16,116.25,41.24,115.21,40.8z"/>
  <path fill="#FFFFFF" d="M123.81,36.08l-1.24,6.24c-0.08,0.44-0.12,0.68-0.12,0.88c0,0.56,0.28,0.88,0.76,0.88c0.36,0,0.8-0.12,1.16-0.32l-0.4,2.64c-0.56,0.24-1.24,0.36-1.8,0.36c-2,0-2.92-1.08-2.92-2.68c0-0.48,0.08-1.08,0.16-1.64l1.36-6.36L123.81,36.08L123.81,36.08z M122.49,32.6c0-0.04,0.04-0.12,0.04-0.16c0-0.08-0.04-0.16-0.12-0.24c-0.16-0.12-0.44-0.24-0.76-0.24c-0.48,0-0.92,0.28-1.16,0.72c-0.12,0.2-0.16,0.44-0.16,0.64c0,0.04,0,0.12,0.04,0.16c0,0.04,0.04,0.12,0.08,0.2c0.16,0.12,0.44,0.24,0.76,0.24C121.85,33.96,122.29,33.32,122.49,32.6z M128.77,32.6c0-0.04,0.04-0.12,0.04-0.16c0-0.08-0.04-0.16-0.12-0.24c-0.16-0.12-0.44-0.24-0.76-0.24c-0.48,0-0.92,0.28-1.16,0.72c-0.12,0.2-0.16,0.44-0.16,0.64c0,0.04,0,0.12,0.04,0.16c0,0.04,0.04,0.12,0.08,0.2c0.16,0.12,0.44,0.24,0.76,0.24C128.09,33.96,128.57,33.32,128.77,32.6z M128.33,36.08l-2.96,12.36h-3.12l2.92-12.36H128.33z"/>
  <path fill="#FFFFFF" d="M135.53,36.08c-0.48,2.32-1,4.92-1.48,7.28l-0.04,0.12c-0.04,0.36,0.04,0.44,0.12,0.52c0.08,0.12,0.2,0.16,0.44,0.16c0.08,0,0.16,0,0.24-0.04c0.08,0,0.16-0.04,0.28-0.08l-0.56,2.4c-0.24,0.08-0.56,0.16-0.88,0.2c-0.32,0.04-0.68,0.08-1,0.08c-0.72,0-1.28-0.16-1.64-0.52c-0.4-0.36-0.56-0.96-0.56-1.64c0-0.4,0.04-0.8,0.12-1.24l0.76-3.88c0.12-0.64,0.24-1.36,0.32-1.96l0.08-0.48c0-0.04,0-0.08,0-0.08c0-0.04,0-0.08-0.04-0.12c-0.04-0.08-0.16-0.16-0.28-0.16c-0.04,0-0.04,0-0.08,0c-0.24,0-0.52,0.16-0.8,0.44c-0.4,0.36-0.72,0.84-0.96,1.28l-0.64,0.12l0.48-1.96h6.16L135.53,36.08z"/>
  <path fill="#FFFFFF" d="M152.09,36.08l-1.24,5.36c-0.08,0.32-0.12,0.6-0.12,0.84c0,0.52,0.24,0.8,0.72,0.8c0.48,0,0.96-0.36,1.28-0.96l1.44-6.04h2.96l-2.08,8.76c-0.72,3.12-2.44,4.92-5.4,4.92c-2.4,0-3.76-1.28-3.76-3.36c0-0.44,0.04-0.92,0.16-1.4l1.16-8.92L152.09,36.08L152.09,36.08z M147.81,36.08l-0.6,2.48l-0.64,0.12c-0.16-0.56-0.64-0.88-1.36-0.88c-1.96,0-3.68,2.24-3.68,4.96c0,1.32,0.6,2.28,1.56,2.28c0.64,0,1.24-0.36,1.84-0.92l-0.16,0.76h2.92l1.92-8.8H147.81z M145.93,42.36c0,0.44-0.08,0.84-0.28,1.2c-0.24,0.48-0.56,0.76-0.96,0.76c-0.36,0-0.56-0.28-0.56-0.84c0-0.88,0.44-2.12,1.36-2.12c0.28,0,0.48,0.12,0.6,0.32c0-0.04-0.08,0.16-0.12,0.32C145.93,42.12,145.93,42.24,145.93,42.36z"/>
  <path fill="#FFFFFF" d="M161.45,36.08c-0.48,2.32-1,4.92-1.48,7.28l-0.04,0.12c-0.04,0.36,0.04,0.44,0.12,0.52c0.08,0.12,0.2,0.16,0.44,0.16c0.08,0,0.16,0,0.24-0.04c0.08,0,0.16-0.04,0.28-0.08l-0.56,2.4c-0.24,0.08-0.56,0.16-0.88,0.2c-0.32,0.04-0.68,0.08-1,0.08c-0.72,0-1.28-0.16-1.64-0.52c-0.4-0.36-0.56-0.96-0.56-1.64c0-0.4,0.04-0.8,0.12-1.24l0.76-3.88c0.12-0.64,0.24-1.36,0.32-1.96l0.08-0.48c0-0.04,0-0.08,0-0.08c0-0.04,0-0.08-0.04-0.12c-0.04-0.08-0.16-0.16-0.28-0.16c-0.04,0-0.04,0-0.08,0c-0.24,0-0.52,0.16-0.8,0.44c-0.4,0.36-0.72,0.84-0.96,1.28l-0.64,0.12l0.48-1.96h6.16L161.45,36.08z"/>
  <path fill="#FFFFFF" d="M173.01,43.16c0-0.8,0.16-1.72,0.44-2.64c0.24-0.76,0.28-1.08,0.28-1.36c0-0.6-0.36-0.96-1.12-0.96c-0.6,0-1.24,0.24-1.72,0.6c0.08-0.32,0.16-0.6,0.2-0.88c0.04-0.28,0.04-0.56,0.04-0.76c0-0.8-0.44-1.32-1.2-1.56c-0.32-0.08-0.76-0.16-1.24-0.16c-1.92,0-3.84,1.16-4.76,3.04c-0.08,0.16-0.16,0.32-0.2,0.48c-0.32,0.76-0.52,1.64-0.52,2.48c0,0.04,0,0.08,0,0.12c0,0.08,0,0.12,0,0.2c0,0.96,0.32,1.76,0.84,2.28c0.52,0.52,1.32,0.76,2.32,0.76c1.4,0,2.56-0.52,3.32-1.24c-0.04,0.28-0.04,0.52-0.04,0.76c0,1.16,0.6,1.8,1.68,1.8c1.56,0,2.64-1.24,3.16-2.2l-0.8-0.48C173.37,43.8,173.01,43.72,173.01,43.16z M167.97,42.92c-0.56,0-0.8-0.28-0.8-0.84c0-0.16,0-0.36,0.04-0.52c0.16-0.8,0.44-1.36,0.84-1.72c0.28-0.24,0.6-0.36,0.92-0.36c0.4,0,0.6,0.28,0.6,0.76c0,0.16-0.04,0.32-0.08,0.52c-0.08,0.36-0.24,0.72-0.52,1.12C168.73,42.4,168.37,42.92,167.97,42.92z"/>
  <path fill="#FFFFFF" d="M179.49,36.08l-1.84,8.76h-2.96l1.84-8.76H179.49z M177.57,33.72c0.12-0.6,0.68-1.04,1.32-1.04s1.08,0.48,1.08,1.12c0,0.68-0.56,1.24-1.28,1.24C177.85,35.04,177.45,34.44,177.57,33.72z"/>
  <path fill="#FFFFFF" d="M191.05,36.08l-1.24,5.36c-0.08,0.32-0.12,0.6-0.12,0.84c0,0.52,0.24,0.8,0.72,0.8c0.48,0,0.96-0.36,1.28-0.96l1.44-6.04h2.96l-2.08,8.76c-0.72,3.12-2.44,4.92-5.4,4.92c-2.4,0-3.76-1.28-3.76-3.36c0-0.44,0.04-0.92,0.16-1.4l1.16-8.92H191.05L191.05,36.08z M186.77,36.08l-0.6,2.48l-0.64,0.12c-0.16-0.56-0.64-0.88-1.36-0.88c-1.96,0-3.68,2.24-3.68,4.96c0,1.32,0.6,2.28,1.56,2.28c0.64,0,1.24-0.36,1.84-0.92l-0.16,0.76h2.92l1.92-8.8H186.77z M184.89,42.36c0,0.44-0.08,0.84-0.28,1.2c-0.24,0.48-0.56,0.76-0.96,0.76c-0.36,0-0.56-0.28-0.56-0.84c0-0.88,0.44-2.12,1.36-2.12c0.28,0,0.48,0.12,0.6,0.32c0-0.04-0.08,0.16-0.12,0.32C184.89,42.12,184.89,42.24,184.89,42.36z"/>
  <path fill="#FFFFFF" d="M198.93,44.96c-0.52,0-0.72-0.16-0.72-0.48c0-0.04,0-0.08,0-0.16l0.96-4.56c0.12-0.52,0.16-1.04,0.16-1.44c0-1.36-0.76-2.32-2.44-2.32c-1.08,0-2.16,0.28-3.16,0.8l-1.84,8.08h-2.96l1.84-8.76h2.36l-0.12,1.2c1.12-0.92,2.44-1.4,3.64-1.4c2.32,0,3.6,1.4,3.6,3.36c0,0.56-0.08,1.16-0.24,1.8l-0.72,3.4c-0.04,0.16-0.04,0.28-0.04,0.36c0,0.32,0.16,0.48,0.48,0.48c0.12,0,0.2-0.04,0.28-0.08c0.04-0.04,0.08-0.04,0.12-0.04l-0.4,2.16c-0.16,0.08-0.36,0.12-0.56,0.16C199.17,44.92,199.05,44.96,198.93,44.96z"/>
</svg>
