<svg xmlns="http://www.w3.org/2000/svg" width="256" height="80" viewBox="0 0 256 80">
  <path fill="#0071CE" d="M45.26,26.02h3.91l5.59,14.53l5.48-14.53h3.8l-7.94,20.7h-2.99C53.11,46.72,45.26,26.02,45.26,26.02z"/>
  <path fill="#0071CE" d="M64.92,31.82h3.58v14.9h-3.58V31.82z M68.55,25.28c0,1.19-0.98,2.14-2.14,2.14c-1.16,0-2.14-0.95-2.14-2.14c0-1.19,0.98-2.14,2.14-2.14C67.57,23.13,68.55,24.09,68.55,25.28z"/>
  <path fill="#0071CE" d="M84.3,31.82v14.9h-3.34l-0.16-1.76c-0.77,0.98-2.11,2.14-4.02,2.14c-3.61,0-5.96-2.99-5.96-7.82c0-4.64,2.58-7.85,6.3-7.85c1.7,0,2.87,0.74,3.67,1.61v-1.22H84.3z M77.76,34.72c-1.88,0-3.07,1.58-3.07,4.6c0,2.93,0.98,4.78,3.01,4.78c1.37,0,2.23-0.65,2.84-1.52V36.3C79.93,35.37,79.13,34.72,77.76,34.72z"/>
  <path fill="#0071CE" d="M86.88,38.97c0-4.87,2.58-7.53,6.45-7.53c3.73,0,6.27,2.49,6.27,7.26c0,0.56-0.03,1.01-0.06,1.46H90.43c0.18,2.58,1.52,3.82,3.7,3.82c1.67,0,2.67-0.77,3.19-2.02h3.34c-0.56,2.49-2.99,5.15-6.51,5.15C89.4,47.11,86.88,44.12,86.88,38.97z M96.12,37.76c-0.18-2.26-1.43-3.4-2.87-3.4c-1.58,0-2.76,1.07-3.01,3.4H96.12z"/>
  <path fill="#0071CE" d="M107.11,47.11c-2.82,0-4.72-1.99-4.72-5.15v-7.26h-2.23v-2.88h2.23v-4.31h3.58v4.31h3.04v2.88h-3.04v7.08c0,1.25,0.74,2.05,1.73,2.05c0.56,0,1.01-0.15,1.31-0.36v3.1C108.51,46.93,107.82,47.11,107.11,47.11z"/>
  <path fill="#0071CE" d="M126.3,31.82h3.52l-6.84,18.62h-3.8l-6.63-18.62h3.79l4.84,14.39L126.3,31.82z"/>
  <path fill="#0071CE" d="M130.43,38.97c0-4.87,2.58-7.53,6.45-7.53c3.73,0,6.27,2.49,6.27,7.26c0,0.56-0.03,1.01-0.06,1.46h-9.11c0.18,2.58,1.52,3.82,3.7,3.82c1.67,0,2.67-0.77,3.19-2.02h3.34c-0.56,2.49-2.99,5.15-6.51,5.15C132.95,47.11,130.43,44.12,130.43,38.97z M139.67,37.76c-0.18-2.26-1.43-3.4-2.87-3.4c-1.58,0-2.76,1.07-3.01,3.4H139.67z"/>
  <path fill="#0071CE" d="M153.15,34.9h-3.28c-0.42-1.94-1.61-3.25-3.49-3.25c-2.52,0-3.79,2.02-3.79,7.11c0,5.18,1.55,7.23,3.91,7.23c1.94,0,2.82-1.31,3.37-3.07h3.28c-0.53,3.52-3.19,5.59-6.72,5.59c-4.54,0-7.41-3.13-7.41-9.81c0-6.6,3.19-9.26,7.26-9.26C150.02,29.44,152.64,31.37,153.15,34.9z"/>
  <path fill="#0071CE" d="M155.97,38.97c0-4.87,2.58-7.53,6.45-7.53c3.73,0,6.27,2.49,6.27,7.26c0,0.56-0.03,1.01-0.06,1.46h-9.11c0.18,2.58,1.52,3.82,3.7,3.82c1.67,0,2.67-0.77,3.19-2.02h3.34c-0.56,2.49-2.99,5.15-6.51,5.15C158.49,47.11,155.97,44.12,155.97,38.97z M165.22,37.76c-0.18-2.26-1.43-3.4-2.87-3.4c-1.58,0-2.76,1.07-3.01,3.4H165.22z"/>
  <path fill="#0071CE" d="M170.55,31.82h3.34l0.15,1.96c0.95-1.46,2.43-2.35,4.46-2.35c2.96,0,5.03,1.73,5.03,5.75v9.55h-3.58v-9.05c0-2.26-0.89-3.34-2.61-3.34c-1.7,0-3.22,1.01-3.22,3.28v9.11h-3.58C170.55,46.72,170.55,31.82,170.55,31.82z"/>
  <path fill="#0071CE" d="M194.3,31.82v14.9h-3.34l-0.15-1.76c-0.77,0.98-2.11,2.14-4.02,2.14c-3.61,0-5.96-2.99-5.96-7.82c0-4.64,2.58-7.85,6.3-7.85c1.7,0,2.87,0.74,3.67,1.61v-1.22L194.3,31.82L194.3,31.82z M187.76,34.72c-1.88,0-3.07,1.58-3.07,4.6c0,2.93,0.98,4.78,3.01,4.78c1.37,0,2.23-0.65,2.84-1.52V36.3C189.93,35.37,189.13,34.72,187.76,34.72z"/>
  <path fill="#0071CE" d="M196.88,38.97c0-4.87,2.58-7.53,6.45-7.53c3.73,0,6.27,2.49,6.27,7.26c0,0.56-0.03,1.01-0.06,1.46h-9.11c0.18,2.58,1.52,3.82,3.7,3.82c1.67,0,2.67-0.77,3.19-2.02h3.34c-0.56,2.49-2.99,5.15-6.51,5.15C199.4,47.11,196.88,44.12,196.88,38.97z M206.12,37.76c-0.18-2.26-1.43-3.4-2.87-3.4c-1.58,0-2.76,1.07-3.01,3.4H206.12z"/>
  <path fill="#FFC124" d="M231.57,50.09l-3.31,3.23l-36.4-35.87l-12.42,17.96l-5.4-3.64l18.06-26.22L231.57,50.09z"/>
</svg>
