<svg xmlns="http://www.w3.org/2000/svg" width="256" height="80" viewBox="0 0 256 80">
  <path fill="#FF9900" d="M100.61,52.9c-9.43,7-23.14,10.73-34.92,10.73c-16.52,0-31.4-6.1-42.62-16.27c-0.88-0.8-0.09-1.89,0.97-1.27c12.16,7.08,27.21,11.32,42.75,11.32c10.48,0,22-2.17,32.58-6.66C101.03,49.97,102.27,51.57,100.61,52.9z"/>
  <path fill="#FF9900" d="M104.03,48.94c-1.2-1.54-7.96-0.73-11-0.37c-0.92,0.11-1.07-0.69-0.23-1.28c5.39-3.78,14.24-2.69,15.26-1.42c1.02,1.28-0.27,10.09-5.3,14.3c-0.77,0.65-1.5,0.3-1.16-0.55C102.5,56.83,105.23,50.48,104.03,48.94z"/>
  <path d="M93.04,29.09v-3.97c0-0.6,0.46-1,1-1h17.76c0.57,0,1.02,0.41,1.02,1v3.4c0,0.57-0.49,1.31-1.34,2.49l-9.2,13.14c3.42-0.08,7.03,0.43,10.14,2.16c0.7,0.39,0.89,0.97,0.94,1.54v4.25c0,0.58-0.64,1.25-1.31,0.9c-5.47-2.87-12.73-3.19-18.77,0.03c-0.62,0.33-1.26-0.33-1.26-0.91v-4.03c0-0.64,0.01-1.73,0.66-2.7l10.64-15.27h-9.27C93.49,30.11,93.04,29.7,93.04,29.09z"/>
  <path d="M37.98,46.06h-5.4c-0.52-0.03-0.93-0.42-0.97-0.91l0.01-27.74c0-0.55,0.46-0.99,1.02-0.99h5.04c0.51,0.03,0.92,0.42,0.96,0.92v3.62h0.1c1.31-3.5,3.77-5.13,7.09-5.13c3.37,0,5.48,1.63,6.99,5.13c1.3-3.5,4.27-5.13,7.44-5.13c2.26,0,4.73,0.93,6.23,3.02c1.7,2.32,1.35,5.7,1.35,8.65l-0.01,18.56c0,0.55-0.46,0.99-1.02,0.99h-5.39c-0.53-0.03-0.96-0.46-0.96-0.99V30.82c0-1.16,0.1-4.07-0.15-5.18c-0.4-1.86-1.6-2.38-3.15-2.38c-1.3,0-2.65,0.87-3.2,2.27c-0.55,1.4-0.5,3.72-0.5,5.28v15.23c0,0.55-0.46,0.99-1.02,0.99h-5.39c-0.53-0.03-0.96-0.46-0.96-0.99V30.82c0-3.08,0.5-7.61-3.3-7.61c-3.85,0-3.7,4.53-3.7,7.61v15.23C38.99,45.62,38.53,46.06,37.98,46.06z"/>
  <path d="M142.79,28.08c-3.95,0-4.2,5.39-4.2,8.75c0,3.36-0.05,10.55,4.15,10.55c4.15,0,4.35-5.79,4.35-9.31c0-2.32-0.1-5.09-0.8-7.29C145.7,29.1,144.35,28.08,142.79,28.08z M142.79,22.7c8.35,0,12.89,7.17,12.89,16.29c0,8.82-5,15.8-12.89,15.8c-8.2,0-12.65-7.17-12.65-16.11C130.15,29.93,134.65,22.7,142.79,22.7z"/>
  <path d="M164.31,46.06h-5.38c-0.53-0.03-0.96-0.46-0.96-0.99l-0.01-27.74c0.05-0.51,0.49-0.91,1.01-0.91h5.01c0.46,0.02,0.83,0.33,0.93,0.74v4.23h0.1c1.51-3.78,3.62-5.59,7.33-5.59c2.41,0,4.77,0.87,6.28,3.25c1.4,2.2,1.4,5.92,1.4,8.59v17.33c-0.06,0.5-0.49,0.89-1.01,0.89h-5.43c-0.48-0.02-0.87-0.39-0.93-0.89V30.58c0-3.02,0.35-7.43-3.37-7.43c-1.3,0-2.5,0.87-3.1,2.21c-0.75,1.68-0.85,3.36-0.85,5.22v15.48C164.33,45.63,163.87,46.06,164.31,46.06z"/>
  <path d="M183.57,22.31c8-0.01,12.31,6.89,12.31,15.65c0,8.45-4.77,15.19-12.31,15.19c-7.84,0-12.1-6.9-12.1-15.5C171.47,29.32,175.72,22.31,183.57,22.31z M183.57,27.46c-3.97,0-4.22,5.42-4.22,8.8c0,3.3-0.05,10.45,4.17,10.45c4.17,0,4.37-5.8,4.37-9.33c0-2.39-0.1-5.25-0.85-7.52C186.45,28.1,185.17,27.46,183.57,27.46z"/>
  <path d="M201.08,46.06h-5.39c-0.53-0.03-0.96-0.46-0.96-0.99l-0.01-27.74c0.05-0.51,0.49-0.91,1.02-0.91h5.02c0.46,0.02,0.85,0.34,0.95,0.76v4.63h0.1c1.06-2.66,2.54-3.94,5.14-3.94c1.69,0,3.33,0.61,4.38,2.27c0.98,1.55,0.98,4.17,0.98,6.04v18c-0.05,0.5-0.49,0.89-1.01,0.89h-5.43c-0.48-0.02-0.87-0.39-0.94-0.89V30.65c0-2.9,0.33-7.15-3.23-7.15c-1.25,0-2.4,0.84-2.98,2.12c-0.72,1.63-0.82,3.25-0.82,5.03v15.41C202.1,45.63,201.64,46.06,201.08,46.06z"/>
</svg>
