<svg xmlns="http://www.w3.org/2000/svg" width="256" height="80" viewBox="0 0 256 80">
  <path fill="#F56400" d="M201.19,36.32c-0.15-1.34-0.39-2.3-0.47-2.73c-0.39-2.11-1-3.96-1.86-5.52l-0.6-1.08h-3.39v1.69c-2.55-2.25-6.76-2.61-9.21-2.61c-7.44,0-12.33,3.53-14.48,10.47c-0.74-7.32-5.65-10.47-13.26-10.47c-6.83,0-9.77,1.3-13.43,4.67v-3.61h-9.01v1.38c-1.68-1.25-4.33-1.91-6.73-1.91c-6.53,0-10.54,3.01-11.51,8.53H114c-0.22-8.01-5.11-8.53-10.91-8.53c-5.08,0-8.46,1.12-11.33,3.57l1.21-2.51h-15.13l-2.25,8.44h-0.08c-1.25-2.66-3.79-3.8-7.12-3.8c-3.61,0-6.59,1.01-8.79,3.02v-2.16h-13.3v1.56C45.07,38.64,39.99,38.59,37.26,38.59h-9.17l2.59-9.66H15.87L10,45.77h8.93l0.82-3.05h6.93c0.47,0,0.97,0.05,1.47,0.11l-0.97,3.61c-1.25,4.69-4.16,5.41-7.97,5.41c-0.95,0-1.99-0.13-3.01-0.31l-0.65,2.43c0,0-1.25,4.69,4.16,5.08c0.91,0.07,1.73,0.09,2.76,0.09c7.37,0,12.44-1.38,15.52-8.01h3.72c0,0,0.13,4.1,5.67,4.1c3.44,0,6.34-0.86,8.36-3.05c0.56,1.99,1.95,3.05,4.85,3.05c1.25,0,2.51-0.13,3.72-0.35v-2.59h-0.99c-1.64,0-2.12-0.17-2.12-2.16v-8.87c0-1.56,0.17-3.16,0.47-4.59c0.43-2.12,2.42-2.82,4.59-2.82c2.6,0,3.96,1.38,3.96,3.79v15.52h7.57v-1.38c1.56,1.04,4.1,1.64,6.76,1.64c4.41,0,7.92-1.34,10.62-4.67h0.09c-0.35,2.08-1.08,4.1-1.08,4.1h7.7l0.73-2.77c0.47,0.43,0.95,0.82,1.47,1.17c2.55,1.73,5.75,1.95,8.7,1.95c4.29,0,8.44-1.08,11.43-3.96c0.43,2.77,2.43,3.96,6.83,3.96c5.04,0,7.66-0.77,10.7-3.44v2.82h13.43V53.9c5.6-0.13,8.97-1.51,11.6-4.2v3.66h13.3v-1.56c1.56,1.12,4.06,1.82,6.8,1.82c3.7,0,7.57-0.95,10.38-3.31l-0.86,3.05h7.75l0.78-2.82c2.21,2.08,5.75,2.82,9.45,2.82c6.2,0,9.01-1.86,10.43-3.4v2.85h13.3V28.66h-13.3V36.32z M33.78,41.63c-0.26,2.46-1.25,3.18-3.05,3.18s-2.85-0.69-2.85-3.05h5.93C33.8,41.67,33.8,41.63,33.78,41.63z M57.71,45.47c-2.34,0-3.27-1.17-3.27-3.7v-9.43c0-2.08-0.22-3.96-0.95-5.67h3.09c0.39,0.82,0.56,1.86,0.56,2.98c1.56-1.82,4.76-3.31,7.53-3.31v4.28c-4.8,0-6.97,3.27-6.97,7.66v7.18H57.71z M76.31,49.53c-2.77,0-4.16-1.34-4.16-4.72c0-3.01,1.34-4.5,4.16-4.5c2.85,0,4.16,1.47,4.16,4.5C80.46,48.19,79.12,49.53,76.31,49.53z M105.17,41.63c-0.26,2.46-1.25,3.18-3.05,3.18s-2.85-0.69-2.85-3.05h5.93C105.2,41.67,105.2,41.63,105.17,41.63z M137.81,46.72c-3.01,0-4.33-0.56-4.33-3.96V34.51c0-2.64,1.6-3.79,4.33-3.79c2.76,0,4.28,1.3,4.28,3.79v8.25C142.1,45.6,140.67,46.72,137.81,46.72z M164.59,46.72c-2.9,0-4.2-0.73-4.2-3.96V34.51c0-2.3,1.26-3.79,4.2-3.79c2.93,0,4.28,1.25,4.28,3.79v8.25C168.87,45.73,167.49,46.72,164.59,46.72z M193.65,46.88c-3.36,0-4.89-1.3-4.89-4.16v-0.09c0-3.44,2.21-4.59,5.97-4.59c1.04,0,2.08,0.09,3.05,0.22C197.86,43.47,196.39,46.88,193.65,46.88z M225.32,46.72c-3.01,0-4.33-0.56-4.33-3.96V34.51c0-2.64,1.6-3.79,4.33-3.79c2.76,0,4.28,1.3,4.28,3.79v8.25C229.6,45.6,228.17,46.72,225.32,46.72z"/>
</svg>
