<svg xmlns="http://www.w3.org/2000/svg" width="256" height="80" viewBox="0 0 256 80">
  <rect width="256" height="80" fill="#7B2288" />
  <g fill="#FFFFFF">
    <path d="M48.42,43.76c-3.78,2.65-8.48,4.04-12.71,4.04c-5.75,0-10.94-2.22-14.83-5.92c-0.31-0.3-0.03-0.7,0.35-0.47c4.48,2.61,10.02,4.16,15.74,4.16c3.86,0,8.1-0.83,12-2.45C49.51,42.81,49.99,43.4,48.42,43.76z"/>
    <path d="M50.45,41.65c-0.48-0.62-3.2-0.3-4.41-0.15c-0.37,0.05-0.42-0.28-0.09-0.52c2.16-1.51,5.71-1.08,6.12-0.57c0.41,0.52-0.11,4.05-2.13,5.74c-0.31,0.26-0.6,0.12-0.46-0.22C49.95,44.52,50.94,42.26,50.45,41.65z"/>
    <path d="M77.13,32.52c-0.14-0.27,0.05-0.58,0.44-0.43c0.53,0.21,1.69,0.69,2.46,1.33c0.62,0.51,0.48,1.26,0.2,1.65c-0.28,0.39-1.1,1.14-2.05,1.65c-0.29,0.15-0.53,0-0.39-0.28C78.19,35.59,77.96,33.41,77.13,32.52z"/>
    <path d="M82.33,44.27c-0.52,0.38-1.11,0.57-1.92,0.57c-1.33,0-2.53-0.8-2.53-2.13c0-1.13,0.69-1.95,1.67-2.47c0.91-0.48,2.18-0.57,3.16-0.7v-0.28c0-0.4,0.03-0.88-0.21-1.23c-0.21-0.31-0.61-0.44-0.96-0.44c-0.65,0-1.24,0.34-1.38,1.04c-0.03,0.15-0.13,0.3-0.28,0.31l-1.55-0.17c-0.13-0.03-0.28-0.13-0.24-0.33c0.36-1.9,2.1-2.47,3.66-2.47c0.79,0,1.83,0.21,2.45,0.81c0.8,0.74,0.72,1.72,0.72,2.78v2.51c0,0.76,0.31,1.09,0.61,1.5c0.1,0.15,0.13,0.33-0.01,0.44c-0.35,0.29-0.97,0.84-1.31,1.14l-0.01-0.01C82.87,44.97,82.68,44.72,82.33,44.27z M81.76,40.76c-1.17,0-2.42,0.25-2.42,1.65c0,0.84,0.45,1.42,1.22,1.42c0.57,0,1.09-0.35,1.42-0.92c0.4-0.7,0.39-1.35,0.39-2.14H81.76z"/>
    <path d="M89.64,44.86c-0.42-0.03-0.93-0.08-1.31-0.21c-0.68-0.21-1.21-0.81-1.21-1.63c0-0.45,0.16-0.8,0.39-1.18c0.48-0.63,1.17-0.9,1.86-1.09c0.81-0.21,1.76-0.25,2.61-0.37c0-0.39,0.03-0.6-0.19-0.91c-0.19-0.28-0.52-0.39-0.83-0.39c-0.84,0-1.59,0.4-1.77,0.96c-0.08,0.24-0.27,0.24-0.39,0.15c-0.15-0.11-0.53-0.32-0.68-0.44c-0.19-0.15-0.16-0.36,0.01-0.53c0.65-0.81,1.88-1.05,2.91-1.05c0.65,0,1.5,0.17,2.02,0.65c0.7,0.62,0.63,1.46,0.63,2.35v2.12c0,0.64,0.26,0.92,0.53,1.27c0.08,0.11,0.11,0.24,0,0.32c-0.28,0.24-0.79,0.69-1.08,0.94c-0.11-0.15-0.19-0.23-0.31-0.39c-0.3,0.27-0.61,0.51-1,0.68c-0.45,0.19-0.97,0.28-1.54,0.28C90.95,45.13,90.28,45.05,89.64,44.86z M92.03,41.56c-0.28,0.04-0.57,0.08-0.85,0.13c-0.48,0.09-1.14,0.23-1.14,0.85c0,0.45,0.47,0.67,0.87,0.67c0.41,0,0.79-0.17,1.07-0.48c0.36-0.41,0.32-0.8,0.32-1.33C92.3,41.44,92.16,41.5,92.03,41.56z"/>
    <path d="M102.06,38.28c0-0.51,0.01-0.93-0.23-1.37c-0.2-0.36-0.52-0.49-0.83-0.49c-0.28,0-0.55,0.09-0.76,0.28c-0.32,0.29-0.44,0.72-0.44,1.17v6.1h-1.86v-8.04h1.86v0.83c0.43-0.65,1.14-0.96,1.9-0.96c0.63,0,1.26,0.23,1.69,0.73c0.49,0.57,0.5,1.22,0.5,1.95v5.5h-1.86v-5.7H102.06z"/>
    <path d="M109.06,38.41c0-0.51-0.03-0.97-0.25-1.42c-0.19-0.39-0.52-0.57-0.92-0.57c-0.7,0-1.07,0.57-1.14,1.25c-0.03,0.23-0.01,0.48-0.01,0.71v5.58h-1.86v-8.04h1.86v0.79c0.33-0.56,0.97-0.92,1.62-0.92c0.59,0,1.18,0.19,1.6,0.65c0.57,0.6,0.71,1.38,0.71,2.21v5.3h-1.86v-5.55H109.06z"/>
    <path d="M116.41,38.28c0-0.51,0.01-0.93-0.23-1.37c-0.2-0.36-0.52-0.49-0.83-0.49c-0.28,0-0.55,0.09-0.76,0.28c-0.32,0.29-0.44,0.72-0.44,1.17v6.1h-1.86v-8.04h1.86v0.83c0.43-0.65,1.14-0.96,1.9-0.96c0.63,0,1.26,0.23,1.69,0.73c0.49,0.57,0.5,1.22,0.5,1.95v5.5h-1.86v-5.7H116.41z"/>
    <path d="M125.24,44.93c-0.53,0.36-1.25,0.44-1.87,0.44c-0.69,0-1.39-0.19-1.9-0.67c-0.52-0.49-0.6-1.14-0.6-1.82V38.1h-1.08V36.9h1.08v-2.16h1.86V36.9h1.5v1.2h-1.5v4.57c0,0.32,0.03,0.67,0.25,0.93c0.19,0.21,0.48,0.27,0.76,0.27c0.4,0,0.76-0.12,1.1-0.33l0.23,1.25C125.72,44.7,125.49,44.82,125.24,44.93z"/>
    <path d="M130.49,36.76c2.01,0,3.13,1.61,3.13,3.57c0,1.94-1.15,3.53-3.13,3.53c-2.01,0-3.13-1.59-3.13-3.53C127.36,38.37,128.48,36.76,130.49,36.76z M130.49,42.65c1.07,0,1.25-1.09,1.25-1.98c0-0.89-0.15-1.7-1.25-1.7c-1.1,0-1.25,0.81-1.25,1.7C129.24,41.56,129.42,42.65,130.49,42.65z"/>
    <path d="M134.56,36.9h1.86v1.35c0.36-0.69,0.92-1.48,1.76-1.48c0.15,0,0.29,0.01,0.41,0.03v1.81c-0.17-0.04-0.35-0.08-0.53-0.08c-1.37,0-1.62,0.99-1.62,2.17v3.27h-1.86V36.9z"/>
    <path d="M145.42,44.39c-0.57,0.4-1.25,0.67-1.94,0.8c-2.56,0.47-4.68-1.21-4.68-3.82c0-2.13,1.25-3.86,3.41-4.32c1.13-0.24,2.17-0.13,3.06,0.59c0.88,0.69,1.42,1.81,1.42,2.91c0,0.32-0.03,0.64-0.08,0.96h-5.93c0.01,1.18,0.69,2.17,1.9,2.17c0.84,0,1.32-0.29,1.9-0.87l0.96,1.58H145.42z M144.49,40.02c0.01-0.99-0.65-1.67-1.65-1.67c-1.02,0-1.67,0.72-1.7,1.67H144.49z"/>
    <path d="M153.25,36.9h1.86v0.8c0.45-0.63,1.1-0.93,1.87-0.93c0.83,0,1.55,0.27,2.01,0.97c0.57-0.64,1.38-0.97,2.21-0.97c1.37,0,2.55,0.67,2.55,2.16v4.98c0,0.35-0.03,0.68-0.16,1.01h-1.7v-5.79c0-0.59-0.24-1.06-0.89-1.06c-0.37,0-0.72,0.21-0.91,0.51c-0.19,0.32-0.25,0.68-0.25,1.06v5.28h-1.86v-5.79c0-0.65-0.29-1.06-0.95-1.06c-0.36,0-0.68,0.2-0.87,0.51c-0.21,0.32-0.25,0.68-0.25,1.06v5.28h-1.86v-8.02H153.25z"/>
    <path d="M166.65,36.9h1.86v0.83c0.32-0.45,0.75-0.76,1.18-0.91c0.28-0.09,0.59-0.13,0.88-0.13c0.87,0,1.66,0.32,2.12,1.06c0.39,0.63,0.47,1.31,0.47,2.04v5.17h-1.86v-5.58c0-0.43-0.03-0.88-0.25-1.25c-0.2-0.33-0.57-0.45-0.95-0.45c-0.44,0-0.84,0.17-1.07,0.56c-0.25,0.45-0.28,1.05-0.28,1.57v5.15h-1.86V36.9H166.65z"/>
    <path d="M174.72,36.9h1.86v1.35c0.36-0.69,0.92-1.48,1.76-1.48c0.15,0,0.29,0.01,0.41,0.03v1.81c-0.17-0.04-0.35-0.08-0.53-0.08c-1.37,0-1.62,0.99-1.62,2.17v3.27h-1.86V36.9z"/>
  </g>
</svg>
